PathFileType	4	(X/Y/Z)	D:\																																																																			
DataRate	CameraRate	NumFrames	NumMarkers	Units	OrigDataRate	OrigDataStartFrame	OrigNumFrames																																																															
240	240	14	21	mm	240	417	833																																																															
Frame#	Time	Top.Head			Front.Head			Rear.Head			R.Shoulder			R.Elbow			R.Wrist			L.Shoulder			L.Elbow			L.Wrist			Offset1			R.ASIS			L.ASIS			V.Sacral			R.Knee			R.Ankle			R.Toe			R.Heel			L.Knee			L.Ankle			L.Toe			L.Heel			V_Head			V_Pelvis		
		X1	Y1	Z1	X2	Y2	Z2	X3	Y3	Z3	X4	Y4	Z4	X5	Y5	Z5	X6	Y6	Z6	X7	Y7	Z7	X8	Y8	Z8	X9	Y9	Z9	X10	Y10	Z10	X11	Y11	Z11	X12	Y12	Z12	X13	Y13	Z13	X14	Y14	Z14	X15	Y15	Z15	X16	Y16	Z16	X17	Y17	Z17	X18	Y18	Z18	X19	Y19	Z19	X20	Y20	Z20	X21	Y21	Z21	X22	Y22	Z22	X23	Y23	Z23
																																																																						
417	1.733	467.27243	-48.65849	1564.62866	457.48059	70.9239	1542.97705	466.27808	-112.26089	1491.73523	632.27509	25.8246	1251.78491	626.53308	122.23891	950.30322	428.37875	171.19637	1108.27246	283.8848	13.00441	1287.34961	239.76965	90.1432	965.59753	450.14349	119.2415	1106.61072	558.83911	-143.99847	1140.83789	602.3269	-216.10132	784.87463	254.36716	-164.7841	771.37726	428.88782	-344.13486	779.79468	652.52258	-23.56264	393.33594	608.27185	-228.91208	122.93076	635.12103	-46.46394	38.88403	543.6073	-307.11313	76.86645	210.58379	25.26048	414.62152	229.20285	-217.3732	127.6763	228.77473	-56.31491	46.94804	286.40265	-306.45123	94.1358	461.87933	-20.6685	1517.35608	418.06296	-260.08301	778.49011
418	1.737	467.69318	-50.42006	1575.99536	457.77664	69.1545	1554.36816	466.74152	-114.03065	1503.10168	632.60419	24.43587	1264.02026	627.30865	124.2511	963.81885	429.03442	171.46265	1122.0979	284.63248	10.89803	1299.71057	239.29259	91.88335	979.20398	450.0159	119.40352	1120.23206	559.33875	-144.43626	1151.0033	602.14648	-213.01308	793.03552	254.39526	-161.88693	779.86328	428.72891	-340.88791	788.86554	652.1474	-25.98451	396.19128	608.8916	-228.67485	123.96691	635.16333	-46.38165	38.83666	544.17346	-306.88681	78.17174	210.29668	22.28697	418.08923	228.90036	-217.2621	128.53006	228.74538	-56.28977	46.93259	286.26965	-306.00958	95.08344	462.25906	-22.43808	1528.73486	418.01285	-257.0419	787.17279
419	1.742	468.13364	-52.16837	1587.51636	458.08313	67.38632	1565.93884	467.21069	-115.77719	1514.61829	632.94995	23.02263	1276.33557	628.05017	126.09499	977.38562	429.67221	171.67343	1135.97034	285.34998	8.72658	1312.198	238.79286	93.53645	992.99536	449.87555	119.49194	1133.97278	559.83905	-144.92938	1161.35706	601.93597	-209.79272	801.40192	254.34367	-158.89839	788.61664	428.56992	-337.52847	798.10596	651.85791	-28.47313	399.29584	609.59851	-228.37117	125.10856	635.19525	-46.30319	38.78189	544.79065	-306.62503	79.62458	210.04533	19.24585	421.81366	228.54744	-217.06644	129.52762	228.71028	-56.25995	46.90759	286.0809	-305.48279	96.2249	462.64691	-24.19543	1540.27856	417.91797	-253.89737	796.06268
420	1.746	468.59149	-53.89888	1599.19067	458.40161	65.62466	1577.68481	467.68591	-117.49507	1526.28186	633.3114	21.57965	1288.7196	628.74939	127.76016	990.98621	430.28442	171.82764	1149.86938	286.03424	6.50224	1324.80103	238.27988	95.09001	1006.95068	449.72046	119.49951	1147.81409	560.33917	-145.48029	1171.89624	601.69879	-206.43634	809.97803	254.216	-155.80731	797.63831	428.41327	-334.0564	807.52148	651.66522	-31.06116	402.65564	610.3877	-228.00267	126.34979	635.21411	-46.23179	38.72069	545.44775	-306.31961	81.21774	209.82945	16.12567	425.80042	228.14072	-216.78606	130.67177	228.67085	-56.2278	46.8728	285.83429	-304.86996	97.56216	463.04376	-25.9352	1551.9834	417.78043	-250.64229	805.16357
421	1.75	469.06381	-55.61018	1611.02063	458.7352	63.8783	1589.60083	468.17032	-119.18137	1538.08838	633.68964	20.10571	1301.1676	629.40143	129.23541	1004.60486	430.86362	171.91805	1163.77393	286.68271	4.23589	1337.50977	237.76207	96.52943	1021.04602	449.55219	119.42232	1161.73706	560.83826	-146.08899	1182.61877	601.44623	-202.94081	818.77246	254.02013	-152.60112	806.93121	428.26443	-330.47153	817.12067	651.5752	-33.7879	406.27267	611.25409	-227.57396	127.68531	635.22028	-46.16801	38.6575	546.13568	-305.96396	82.9507	209.64606	12.90836	430.05545	227.67548	-216.42191	131.96516	228.63097	-56.19549	46.82867	285.5296	-304.16693	99.09393	463.45276	-27.65152	1563.8446	417.60776	-247.26993	814.4823
422	1.754	469.54803	-57.30089	1623.00488	459.08835	62.15773	1601.68005	468.66656	-120.83459	1550.0332	634.08594	18.6057	1313.6803	630.00354	130.51033	1018.22858	431.40253	171.93387	1177.66382	287.2937	1.93663	1350.3136	237.24683	97.84058	1035.25732	449.37476	119.257	1175.72095	561.33624	-146.75003	1193.52258	601.19263	-199.30629	827.79468	253.76405	-149.26962	816.50006	428.12811	-326.77069	826.91333	651.5874	-36.69659	410.14835	612.1925	-227.09134	129.11116	635.216	-46.11113	38.59872	546.8493	-305.55188	84.82969	209.48706	9.5666	434.5827	227.14658	-215.97202	133.40945	228.59741	-56.16495	46.77577	285.16498	-303.36761	100.81795	463.87747	-29.33841	1575.85669	417.40906	-243.77698	824.02722
423	1.758	470.04376	-58.9668	1635.13794	459.46658	60.47322	1613.91321	469.17599	-122.45175	1562.11084	634.50055	17.08978	1326.25952	630.55389	131.5753	1031.84753	431.89377	171.86453	1191.52063	287.86667	-0.3856	1363.20081	236.74084	99.01064	1049.56128	449.19244	118.99681	1189.74365	561.83612	-147.45361	1204.60718	600.94678	-195.53876	837.05017	253.45505	-145.80869	826.35034	428.00436	-322.94565	836.90839	651.69464	-39.83147	414.28461	613.19855	-226.56097	130.62607	635.203	-46.06099	38.5499	547.58765	-305.07404	86.86577	209.33905	6.06474	439.38278	226.55017	-215.43158	135.00386	228.57774	-56.13874	46.7139	284.7377	-302.46552	102.73423	464.32129	-30.98926	1588.01208	417.19022	-240.16498	833.80579
424	1.763	470.55466	-60.60075	1647.40979	459.87564	58.83405	1626.28796	469.70081	-124.02718	1574.31567	634.92987	15.57285	1338.90576	631.05005	132.42197	1045.45264	432.32993	171.7021	1205.3269	288.40259	-2.71944	1376.1582	236.25006	100.02696	1063.93372	449.00845	118.63213	1203.78284	562.34442	-148.19095	1215.87402	600.70856	-191.64818	846.53723	253.09929	-142.22156	836.48688	427.89026	-318.98303	847.11292	651.88141	-43.23468	418.68292	614.27045	-225.98685	132.2325	635.18207	-46.01908	38.51313	548.3548	-304.51379	89.07423	209.1859	2.36394	444.45407	225.88327	-214.79413	136.7464	228.57617	-56.12156	46.64088	284.24811	-301.45261	104.84741	464.78821	-32.59656	1600.30188	416.95288	-236.43948	843.82263
425	1.767	471.08792	-62.1942	1659.80847	460.32028	57.24785	1638.79163	470.24408	-125.55365	1586.64185	635.36554	14.07321	1351.61609	631.48853	133.04472	1059.0332	432.70383	171.44214	1219.06445	288.90329	-5.05611	1389.17041	235.77855	100.87709	1078.34814	448.82697	118.15941	1217.81738	562.86816	-148.95734	1227.32446	600.47382	-187.64241	856.24713	252.70094	-138.51653	846.91119	427.78461	-314.86679	857.5321	652.12305	-46.94363	423.3439	615.40863	-225.36786	133.93808	635.15277	-45.98858	38.48596	549.1601	-303.84357	91.47576	209.0137	-1.57118	449.79642	225.14243	-214.04764	138.63565	228.5909	-56.12091	46.55249	283.7002	-300.31592	107.16756	465.2822	-34.15289	1612.71667	416.69714	-232.60699	854.07922
426	1.771	471.65057	-63.7382	1672.32117	460.80377	55.71996	1651.40991	470.80685	-127.02437	1599.08276	635.79669	12.60817	1364.38379	631.86493	133.44202	1072.57483	433.00916	171.08414	1232.71631	289.37064	-7.39262	1402.22058	235.32953	101.55157	1092.77576	448.65356	117.5854	1231.82764	563.41199	-149.75089	1238.95862	600.23859	-183.52347	866.16644	252.26183	-134.70453	857.61835	427.69049	-310.58167	868.16895	652.38721	-50.9895	428.26773	616.61639	-224.69455	135.7571	635.11536	-45.97332	38.46138	550.01508	-303.02396	94.09831	208.81653	-5.76762	455.41684	224.32359	-213.17078	140.67235	228.61472	-56.14584	46.44346	283.09738	-299.03503	109.71277	465.8053	-35.65221	1625.24634	416.42368	-228.67287	864.57281
427	1.775	472.2457	-65.22401	1684.93372	461.32791	54.25461	1664.12512	471.3869	-128.43394	1611.63025	636.21362	11.18942	1377.19788	632.17438	133.61705	1086.06116	433.24075	170.63086	1246.26904	289.80661	-9.72873	1415.29028	234.90785	102.04643	1107.18787	448.49326	116.92104	1245.79248	563.97845	-150.56969	1250.77258	599.99854	-179.28922	876.27905	251.78258	-130.79825	868.59521	427.61337	-306.11652	879.02338	652.63556	-55.39702	433.45358	617.90167	-223.94531	137.71143	635.07269	-45.97665	38.42702	550.93231	-302.00909	96.98091	208.60074	-10.24268	461.33289	223.42209	-212.13188	142.86084	228.63861	-56.20293	46.30843	282.43823	-297.57883	112.51187	466.35742	-37.08968	1637.87769	416.13354	-224.64124	875.29639
428	1.779	472.87244	-66.64368	1697.62915	461.89194	52.85622	1676.91382	471.98105	-129.77843	1624.27344	636.60919	9.82373	1390.04419	632.41107	133.57637	1099.47473	433.39413	170.08545	1259.71167	290.21567	-12.06239	1428.35913	234.52057	102.36234	1121.55664	448.34949	116.17511	1259.68848	564.56903	-151.40996	1262.75684	599.74719	-174.93668	886.565	251.26552	-126.80939	879.81873	427.5574	-301.46509	890.0918	652.82642	-60.18243	438.89929	619.27893	-223.08252	139.83025	635.03192	-46.00022	38.36314	551.92944	-300.75385	100.17757	208.38594	-15.00314	467.57288	222.43213	-210.88838	145.21193	228.65552	-56.29097	46.14147	281.71423	-295.90396	115.60657	466.93649	-38.46112	1650.59363	415.8277	-220.51447	886.23749
429	1.783	473.52734	-67.99045	1710.38623	462.49072	51.52907	1689.74683	472.58667	-131.0556	1636.99768	636.97693	8.5155	1402.90491	632.56909	133.32788	1112.79797	433.46542	169.44839	1273.03516	290.60599	-14.38933	1441.40491	234.17384	102.5022	1135.85522	448.2236	115.35139	1273.48962	565.18329	-152.2666	1274.89258	599.47461	-170.46475	896.99976	250.71587	-122.74599	891.25623	427.5242	-296.62515	901.36731	652.91913	-65.35052	444.60501	620.76837	-222.05121	142.15083	635.00183	-46.04121	38.24267	553.03235	-299.21475	103.7585	208.20221	-20.0455	474.17471	221.34625	-209.38739	147.74788	228.66185	-56.39486	45.93462	280.90884	-293.95844	119.05502	467.5387	-39.76328	1663.37231	415.50555	-216.29256	897.37805
430	1.788	474.20499	-69.25774	1723.18042	463.1152	50.27597	1702.59106	473.19995	-132.26431	1649.7821	637.30933	7.26489	1415.75732	632.64545	132.88144	1126.0116	433.4516	168.71744	1286.23254	290.9884	-16.70546	1454.40405	233.87061	102.47083	1150.05457	448.11444	114.44838	1287.17029	565.81958	-153.13406	1287.15186	599.16876	-165.87518	907.55615	250.1407	-118.61304	902.86615	427.51392	-291.59793	912.84027	652.88153	-70.89302	450.57745	622.3916	-220.78226	144.72188	634.99091	-46.08585	38.03727	554.27179	-297.34714	107.80931	208.08496	-25.35997	481.18015	220.15611	-207.56645	150.50742	228.65567	-56.47964	45.6781	280.00104	-291.68796	122.93504	468.15759	-40.99417	1676.18652	415.16541	-211.97427	908.69586
